<svg xmlns="http://www.w3.org/2000/svg" viewBox="0 0 93.58 96.04"><defs><style>.cls-1{fill:#06f;}</style></defs><g id="Capa_2" data-name="Capa 2"><g id="Capa_1-2" data-name="Capa 1"><path class="cls-1" d="M79.75,33.47a4.13,4.13,0,0,1,.4,1.72,3.44,3.44,0,0,1-.47,1.69h0a5.33,5.33,0,0,1-1.62,1.62,5.89,5.89,0,0,1-4.2.75c-2.59-.42-4.79-.89-6.52-1.31a93.33,93.33,0,0,1-9-2.71c-.72-.25-1.93-.73-4.36-1.68s-3.56-1.37-4.5-1.77c-2.5-1.07-4.39-2-5.24-2.47a48.32,48.32,0,0,1-4.7-2.65l-4.3-2.78-4-2.54-2.67-1.76-2.69-1.69L24.37,17a5.09,5.09,0,0,1-1.12-.95c-.45-.5-.46-.71-.45-.82a.89.89,0,0,1,.46-.59c.62.27,1.44.65,2.4,1.11s3.19,1.54,6.2,3.24c2.2,1.24,5,2.89,8.07,5,.55.28,1.13.56,1.74.83h0a3.3,3.3,0,0,0,3.07-.14c3.79-2.3,6-6.18,8.93-9.4,1-1.07,2-3,4-3.45a1.83,1.83,0,0,1,2.14,1.44,2.19,2.19,0,0,1,0,.36c0,5-2.28,9.71-2.76,14.88a1.81,1.81,0,0,0,1.16,1.83,30.36,30.36,0,0,0,5.19,1.55,29.58,29.58,0,0,0,4.08.53A3.21,3.21,0,0,0,71,29.51c0-.11,0-.22,0-.33v-.06a6.2,6.2,0,0,0-.5-1.74,6.84,6.84,0,0,0-1.34-1.86,21,21,0,0,0-2.24-1.85A20.51,20.51,0,0,1,65,22c-.61-.65-1.71-1.64-1.49-1.85s1.61.18,2.62.5A12.75,12.75,0,0,1,69,22a21.66,21.66,0,0,1,2,1.31A26.41,26.41,0,0,1,73.36,25a21.3,21.3,0,0,1,2.91,3.17c.55.68,1,1.4,2.06,2.83A11.76,11.76,0,0,1,79.75,33.47Z"/><path class="cls-1" d="M91.9,40.34a5.79,5.79,0,0,0-1.6-1.48c-.63-.5-1.21-.81-1.58-.4-.51.94,0,1.45.78,1.83h0a5.61,5.61,0,0,1,1.85,2.08c0,.12.58,2.09-.24,3.31-1,1.46-3.55,1.35-4.78,1.26a119.56,119.56,0,0,1-33.81-7.42c-4.28-1.78-10.1-4.36-16.9-7.83l-2.37-1.32h-.06C32.62,30,22.35,23.28,22,23h0c-.34-.24-.88-.63-1.54-1.13-4.14-3.12-6.31-4.79-7.69-7.47a12.49,12.49,0,0,1-.89-2.29,4.06,4.06,0,0,1,.52-3.27h0A13.56,13.56,0,0,1,15.7,6.22,27.62,27.62,0,0,1,21.8,4c.8-.17,1.4-.25,1.44-.53.09-.6-2.5-1.49-4.1-2C17.75,1,16.58.7,15.75.49A25.06,25.06,0,0,0,12.08,0,24.82,24.82,0,0,0,9.22.07,10.76,10.76,0,0,0,1.77,3.63,7.38,7.38,0,0,0,.22,6.47c-.59,2.2,0,4.72,1.73,7.86C5.46,20.71,11.16,24.93,17,29c7,4.84,14.76,8.32,22.4,12.28h0c-.26,1.45-.41,2.67-.7,3.84Q33.45,65.93,28.2,86.75c-.84,3.31-1.64,6.56,2.14,9.29H53.26a14.18,14.18,0,0,0,1.14-5.41h0c-3.68-.51-6.74.24-10.41-.71a1.39,1.39,0,0,1-1-1.63c3-13.91,6.09-27.82,9.23-42.11h0l10.09,2.39c8.55,2,17.21,3,26,1.78A6.25,6.25,0,0,0,91,49.23a6.09,6.09,0,0,0,2.51-3.62A6.56,6.56,0,0,0,91.9,40.34Z"/></g></g></svg>