<svg xmlns="http://www.w3.org/2000/svg" viewBox="0 0 214.18 214.18"><defs><style>.cls-1{fill:#00b4b9;}.cls-2{fill:#fefefe;}</style></defs><g id="Capa_2" data-name="Capa 2"><g id="Capa_1-2" data-name="Capa 1"><g id="Capa_1-3" data-name="Capa 1"><g id="_Group_" data-name="&lt;Group&gt;"><g id="_Group_2" data-name="&lt;Group&gt;"><path id="_Path_" data-name="&lt;Path&gt;" class="cls-1" d="M162.22,214.18H52a52.11,52.11,0,0,1-52-52V52A52.11,52.11,0,0,1,52,0H162.22a52.11,52.11,0,0,1,52,52V162.22A52.11,52.11,0,0,1,162.22,214.18Z"/><path id="_Compound_Path_" data-name="&lt;Compound Path&gt;" class="cls-2" d="M121.45,156.74c-12.34,14-28.93,22.23-43,20.65-31.87-3.59-47.88-29.71-45-55.35C35.37,105,46,89.77,62,80.58c16.52-9.6,31.41-11,41.8-9.79,8.78,1,15.88,4.36,19.7,7.82a9.75,9.75,0,0,1,3.43,9c-1,6.45-8.15,12.18-11.85,11.77-1.62-.18-3.16-1.06-4.79-3.11-9-9.44-16.44-14-22.67-14.72-9-1-20.85,6.55-23.66,31.49-3.45,30.72,17.83,43.16,27.76,44.28,9.47,1.07,16.69-.69,25.8-6.92Z"/><path id="_Compound_Path_2" data-name="&lt;Compound Path&gt;" class="cls-2" d="M142.1,23c7.89,0,19.29,1.4,19.52,10.23a82.41,82.41,0,0,1-.94,10.22c-2.32,14.88-9.06,64.69-13,94H136.52c-3.26-27-10-77.24-12.79-93.28a59.64,59.64,0,0,1-1.62-10.92c0-8.14,11.62-10.23,20-10.23Zm.34,163.78a19.41,19.41,0,1,1,18.95-19.4,19.16,19.16,0,0,1-18.95,19.4Z"/></g></g></g></g></g></svg>